<svg xmlns="http://www.w3.org/2000/svg" viewBox="0 0 300 660" width="300" height="660" role="img" aria-label="GENIXGREEN app — live monitoring screen">
  <defs>
    <linearGradient id="ring" x1="0" y1="1" x2="1" y2="0">
      <stop offset="0" stop-color="#3ED47F"/>
      <stop offset="0.55" stop-color="#8FD03E"/>
      <stop offset="0.78" stop-color="#F0A020"/>
      <stop offset="1" stop-color="#E5484D"/>
    </linearGradient>
  </defs>

  <rect width="300" height="660" fill="#0A1220"/>

  <text x="16" y="19" font-family="Arial,Helvetica,sans-serif" font-size="11" fill="#E8EEF7">08:34</text>
  <g fill="#E8EEF7">
    <rect x="212" y="11" width="3" height="7" rx="1"/>
    <rect x="218" y="8" width="3" height="10" rx="1"/>
    <rect x="224" y="5" width="3" height="13" rx="1"/>
    <path d="M236 14a11 11 0 0 1 13 0" fill="none" stroke="#E8EEF7" stroke-width="1.6"/>
    <path d="M239.5 17.5a6 6 0 0 1 6 0" fill="none" stroke="#E8EEF7" stroke-width="1.6"/>
    <rect x="262" y="6" width="26" height="12" rx="3" fill="none" stroke="#E8EEF7" stroke-width="1.2"/>
    <rect x="264" y="8" width="18" height="8" rx="1.5"/>
    <rect x="289" y="9.5" width="2" height="5" rx="1"/>
  </g>

  <rect x="0" y="28" width="300" height="46" fill="#0D1626"/>
  <path d="M20 45l-6 6 6 6" fill="none" stroke="#E8EEF7" stroke-width="1.8" stroke-linecap="round" stroke-linejoin="round"/>
  <text x="150" y="57" font-family="Arial,Helvetica,sans-serif" font-size="15" font-weight="600" fill="#E8EEF7" text-anchor="middle">Monitor</text>
  <rect x="0" y="74" width="300" height="1" fill="#1E2A3E"/>

  <rect x="0" y="75" width="300" height="36" fill="#0F1A2C"/>
  <text x="16" y="98" font-family="Arial,Helvetica,sans-serif" font-size="11" fill="#C6D3E4">Sn:  Z2348PG216100F1000159</text>
  <rect x="0" y="111" width="300" height="1" fill="#1E2A3E"/>

  <g font-family="Arial,Helvetica,sans-serif" font-size="10.5">
    <circle cx="17" cy="131" r="4" fill="#3ED47F"/><text x="28" y="135" fill="#C6D3E4">On-line</text>
    <circle cx="17" cy="151" r="4" fill="#E5484D"/><text x="28" y="155" fill="#C6D3E4">soc 96%</text>
    <circle cx="194" cy="131" r="4" fill="#F0A020"/><text x="205" y="135" fill="#C6D3E4">Env  -1&#176;C</text>
    <circle cx="194" cy="151" r="4" fill="#1E7BE8"/><text x="205" y="155" fill="#C6D3E4">Cells  -6&#176;C</text>
    <circle cx="194" cy="171" r="4" fill="#8B7BE8"/><text x="205" y="175" fill="#C6D3E4">Board  -1&#176;C</text>
  </g>

  <circle cx="118" cy="292" r="76" fill="none" stroke="#1B2B44" stroke-width="13"/>
  <circle cx="118" cy="292" r="76" fill="none" stroke="url(#ring)" stroke-width="13" stroke-linecap="round"
          stroke-dasharray="458 1000" transform="rotate(-90 118 292)"/>
  <text x="118" y="288" font-family="Arial,Helvetica,sans-serif" font-size="36" font-weight="700" fill="#FFFFFF" text-anchor="middle">96%</text>
  <text x="118" y="326" font-family="Arial,Helvetica,sans-serif" font-size="13" fill="#E8EEF7" text-anchor="middle">Electricity</text>

  <rect x="12" y="278" width="56" height="28" rx="14" fill="#1E7BE8"/>
  <text x="40" y="296" font-family="Arial,Helvetica,sans-serif" font-size="10.5" fill="#FFFFFF" text-anchor="middle">Unbind</text>

  <g transform="translate(238 248)">
    <circle cx="0" cy="0" r="15" fill="#16233A"/>
    <circle cx="0" cy="-4" r="4.4" fill="#3ED47F"/>
    <path d="M-7 8a7 7 0 0 1 14 0z" fill="#3ED47F"/>
    <text x="0" y="26" font-family="Arial,Helvetica,sans-serif" font-size="7.5" fill="#3ED47F" text-anchor="middle">Contact</text>
  </g>
  <g transform="translate(238 316)">
    <rect x="-15" y="-15" width="30" height="30" rx="9" fill="#16233A"/>
    <path d="M0-9l8 4.5v9L0 9l-8-4.5v-9z" fill="none" stroke="#3ED47F" stroke-width="1.8"/>
    <circle cx="0" cy="0" r="2.6" fill="#3ED47F"/>
    <text x="0" y="26" font-family="Arial,Helvetica,sans-serif" font-size="7.5" fill="#3ED47F" text-anchor="middle">Inverter</text>
  </g>

  <rect x="72" y="382" width="152" height="24" rx="12" fill="#16233A"/>
  <text x="84" y="398" font-family="Arial,Helvetica,sans-serif" font-size="9.5" fill="#9FB1C7">2024-05-05 08:33:01</text>
  <rect x="196" y="384" width="24" height="20" rx="10" fill="#1E2A3E"/>
  <text x="208" y="398" font-family="Arial,Helvetica,sans-serif" font-size="9" fill="#9FB1C7" text-anchor="middle">6s</text>

  <text x="134" y="436" font-family="Arial,Helvetica,sans-serif" font-size="11.5" fill="#C6D3E4" text-anchor="middle">Z2348PG216100F1000159</text>
  <path d="M252 428h4l6 6-4 4-6-6z" fill="none" stroke="#3ED47F" stroke-width="1.4" stroke-linejoin="round"/>

  <rect x="0" y="456" width="300" height="1" fill="#1E2A3E"/>

  <g font-family="Arial,Helvetica,sans-serif" font-size="10">
    <path d="M17 476h7l-3.5 6z" fill="#1E7BE8"/>
    <text x="30" y="482" fill="#8095AE">Voltage: </text><text x="82" y="482" fill="#C6D3E4">53.42V</text>
    <path d="M159 476h7l-3.5 6z" fill="#1E7BE8"/>
    <text x="172" y="482" fill="#8095AE">Current: </text><text x="222" y="482" fill="#C6D3E4">0AH</text>

    <rect x="15" y="497" width="11" height="13" rx="2" fill="none" stroke="#3ED47F" stroke-width="1.4"/>
    <text x="30" y="508" fill="#8095AE">Capacity: </text><text x="89" y="508" fill="#C6D3E4">100AH</text>
    <rect x="157" y="497" width="11" height="13" rx="2" fill="none" stroke="#1E7BE8" stroke-width="1.4"/>
    <text x="172" y="508" fill="#8095AE">Surplus: </text><text x="222" y="508" fill="#C6D3E4">95.9AH</text>

    <path d="M17 524h7l-3.5 6z" fill="#3ED47F"/>
    <text x="30" y="530" fill="#8095AE">Vmax: </text><text x="73" y="530" fill="#C6D3E4">3.339V</text>
    <path d="M159 524h7l-3.5 6z" fill="#3ED47F"/>
    <text x="172" y="530" fill="#8095AE">Vmin: </text><text x="215" y="530" fill="#C6D3E4">3.339V</text>

    <path d="M17 551h7l-3.5 6z" fill="#3ED47F"/>
    <text x="30" y="557" fill="#8095AE">Differential Voltage: </text><text x="132" y="557" fill="#C6D3E4">0V</text>
    <circle cx="162" cy="554" r="5" fill="none" stroke="#8B7BE8" stroke-width="1.4"/>
    <text x="172" y="557" fill="#8095AE">Loop: </text><text x="207" y="557" fill="#C6D3E4">ON</text>
  </g>

  <rect x="0" y="574" width="300" height="1" fill="#1E2A3E"/>
  <text x="16" y="598" font-family="Arial,Helvetica,sans-serif" font-size="11.5" fill="#E8EEF7">Electricity Statistics</text>

  <rect x="16" y="610" width="268" height="34" rx="5" fill="#1E7BE8"/>
  <text x="26" y="627" font-family="Arial,Helvetica,sans-serif" font-size="13" font-weight="700" fill="#FFFFFF">5.49</text>
  <text x="56" y="627" font-family="Arial,Helvetica,sans-serif" font-size="8" fill="#CFE0F5">kWh</text>
  <text x="26" y="639" font-family="Arial,Helvetica,sans-serif" font-size="7.5" fill="#CFE0F5">Charg Capacity</text>
</svg>
